<?xml version="1.0" encoding="UTF-8" standalone="no"?>
<!DOCTYPE svg PUBLIC "-//W3C//DTD SVG 1.1//EN" "http://www.w3.org/Graphics/SVG/1.1/DTD/svg11.dtd">
<svg width="100%" height="100%" viewBox="0 0 24 24" version="1.1" xmlns="http://www.w3.org/2000/svg" xmlns:xlink="http://www.w3.org/1999/xlink" xml:space="preserve" xmlns:serif="http://www.serif.com/" style="fill-rule:evenodd;clip-rule:evenodd;stroke-linejoin:round;stroke-miterlimit:2;">
    <g transform="matrix(0.032187,0,0,0.033102,-4.386312,-4.437873)">
        <path d="M163.906,596.532C173.513,458.792 218.614,348.895 238.43,325.441C249.207,312.684 244.158,309.483 248.904,302.795C270.294,272.653 363.922,225.164 390.244,240.917C458.342,281.673 579.927,274.759 635.194,239.035C649.371,229.871 704.828,247.544 742.779,274.106C780.825,300.734 777.71,309.893 779.6,316.47C781.253,322.22 788.735,329.179 792.131,335.692C853.997,454.358 891.381,696.792 823.916,753.972C757.096,810.606 678.593,642.623 670.365,633.609C668.251,631.293 657.972,637.02 640.528,641.608C476.779,684.673 360.917,631.433 354.513,632.558C351.465,633.094 324.058,691.136 288.398,730.409C213.461,812.939 154.866,742.777 163.906,596.532ZM498.564,331.818C499.109,331.731 499.072,331.892 499.563,331.659C502.692,330.169 518.355,328.853 526.556,332.157L527.552,332.356C535.762,334.373 535.714,334.526 536.438,334.647C536.725,334.727 537.012,334.806 537.299,334.886C538.653,335.961 538.521,336.044 538.643,336.124L541.407,336.693C541.776,336.952 542.145,337.212 542.514,337.471C544.073,339.509 544.404,339.081 549.506,341.49C549.618,341.586 549.53,342.722 552.527,343.461C556.796,346.48 557.277,345.855 565.742,355.344C565.858,358.7 569.235,360.224 569.531,360.477L569.64,361.419C570.551,362.479 570.5,362.423 571.479,363.512C571.729,365.455 572.03,365.26 573.252,366.69C573.366,366.823 574.136,367.724 574.416,368.543C574.815,371.89 575.621,371.408 575.646,371.433L575.967,374.348C576.7,375.353 576.635,375.278 576.7,375.353C576.966,375.662 577.121,375.297 577.354,375.568C577.588,375.935 577.822,376.301 578.056,376.667L577.841,377.421L577.996,380.373C578.31,381.367 578.623,382.361 578.937,383.355C578.974,383.446 579.674,383.43 579.917,387.359C580.273,388.348 580.629,389.337 580.986,390.326C581.337,390.735 581.688,391.144 582.04,391.552L582.039,392.518C581.913,393.79 581.39,399.057 582.038,408.501L581.726,410.559L580.979,411.67C580.645,415.879 579.965,415.615 579.948,415.655C579.711,419.673 579.069,419.435 578.988,419.635L578.486,422.495C578.271,423.523 578.055,424.551 577.84,425.58L578.066,426.338C577.838,426.707 577.609,427.076 577.38,427.445C576.424,428.497 576.477,428.435 575.579,429.543C574.515,433.854 574.5,433.802 574.406,434.454C574.158,435.291 573.39,436.196 573.276,436.329C572.027,437.776 571.721,437.587 571.492,439.495L571.29,440.362C570.384,440.996 570.259,440.748 569.59,441.552C568.571,442.774 568.971,442.902 568.3,444.363C567.425,445.649 565.734,447.259 565.491,447.49C565.13,447.779 561.044,450.094 560.531,451.521C560.472,451.684 560.214,452.399 559.322,453.327C557.5,455.223 557.658,455.337 557.499,455.499C557.297,455.705 556.842,455.42 556.643,455.628C556.435,455.846 556.729,456.305 556.521,456.523C555.896,456.931 555.271,457.339 554.645,457.747C553.44,458.571 553.503,458.532 552.542,459.543C552.199,459.869 551.856,460.195 551.513,460.521C548.411,460.937 548.367,461.034 546.42,463.398C543.631,463.506 543.913,464.279 542.574,464.624C542.47,464.651 538.046,466.693 537.653,466.874C536.564,467.608 536.642,467.538 536.564,467.608C536.275,467.862 536.609,468.009 536.358,468.229C534.861,468.015 534.927,468.139 533.533,468.596C532.211,468.972 530.888,469.348 529.566,469.724C528.568,470.054 527.57,470.383 526.571,470.713L525.449,471.231C524.456,471.492 523.464,471.753 522.471,472.013C521.034,471.97 511.915,471.696 504.496,472.024C500.872,471.913 500.942,471.91 497.408,470.8L496.476,470.567C495.492,470.193 494.508,469.819 493.524,469.444C492.361,468.554 492.488,468.515 491.376,467.973L488.411,467.847L487.654,468.079C487.288,467.847 486.922,467.615 486.555,467.383C486.214,467.069 485.874,466.756 485.533,466.442C484.342,465.782 484.576,465.529 483.322,464.866C481.756,464.038 481.885,463.953 480.353,462.965C479.391,462.831 478.43,462.698 477.469,462.565L476.583,462.345C475.439,461.417 475.67,461.318 474.522,460.463C473.567,459.752 473.527,460.013 472.475,459.537C472.011,459.189 471.259,459.435 470.795,459.088C470.795,459.088 469.597,457.634 469.493,457.508C468.839,457.157 468.185,456.806 467.531,456.454C464.472,453.115 461.532,451.497 458.329,446.592C457.664,445.69 458.021,445.558 457.295,444.608C456.115,442.777 456.017,442.936 454.343,441.607C454.206,439.803 454.62,439.728 453.593,438.437C452.686,437.297 452.522,437.565 451.584,436.457C450.785,434.811 450.916,434.802 449.695,433.388C449.644,432.888 449.346,429.935 447.331,427.572L446.853,427.37C446.881,427.065 447.013,425.65 446.156,423.598L445.742,423.402C446.011,421.514 446.049,421.585 446.075,419.635C445.468,418.16 445.435,418.255 445.071,416.641C444.237,415.223 444.407,415.235 444.077,413.671C443.177,412.766 443.188,412.853 441.96,412.478C441.951,395.897 441.617,395.819 443.051,391.409C443.373,390.72 443.696,390.031 444.018,389.342C444.396,387.752 444.427,387.851 445.074,386.36C445.438,384.748 445.47,384.843 446.07,383.371C446.032,381.411 446.004,381.481 445.753,379.604C446.585,377.611 447.056,377.74 446.845,375.621C447.101,375.268 447.357,374.914 447.613,374.56C448.643,373.52 448.579,373.593 449.414,372.453C450.532,368.856 450.572,368.919 450.643,368.603C453.015,365.338 453.785,363.385 454.5,362.5C454.724,362.222 455.831,360.851 456.525,358.519C456.826,358.157 457.127,357.795 457.428,357.433C457.624,357.313 458.608,358.231 459.643,354.611C460.882,353.253 463.973,350.345 465.528,348.527C466.163,348.015 466.336,348.618 467.013,348.071C467.114,347.99 467.051,347.957 467.528,346.534L468.304,346.189C469.545,345.46 469.488,345.496 470.495,344.495C471.462,343.446 471.37,343.512 471.462,343.446C471.917,343.117 471.989,343.652 472.417,343.343C474.708,341.48 475.228,342.376 477.421,340.399C478.319,340.218 478.27,340.162 480.363,339.322C480.592,339.174 480.28,338.664 480.509,338.516C480.509,338.516 482.353,337.607 482.513,337.528C483.176,337.187 483.839,336.846 484.503,336.506C484.871,336.239 485.239,335.972 485.607,335.706C486.275,335.407 486.942,335.108 487.61,334.81C488.534,334.876 489.458,334.942 490.382,335.008C492.51,334.33 492.325,334.036 494.448,333.323C495.449,333 496.451,332.677 497.452,332.355L498.564,331.818ZM399.35,467.814C399.576,468.009 399.334,469.198 403.471,468.892L404.418,468.915C407.485,470.886 407.355,470.944 407.63,471.088L409.556,471.375C411.494,471.858 411.4,471.951 413.392,471.817L414.297,471.999C414.659,472.239 415.02,472.478 415.382,472.717C415.745,472.996 416.109,473.275 416.472,473.554C417.388,474.249 417.328,474.242 418.483,474.533C418.815,474.868 419.148,475.203 419.48,475.538C420.871,476.525 420.925,476.199 422.601,476.335C422.733,476.454 422.733,476.444 425.527,478.464C426.842,479.867 426.655,480.297 428.585,480.382C428.906,480.738 429.227,481.095 429.549,481.452C433.187,485.81 433.122,485.77 437.535,489.462C439.269,491.042 439.999,492.352 440.159,492.64C441.136,497.12 441.775,496.793 444.355,500.568C445.411,502.548 446.173,505.119 446.294,505.527C446.301,506.032 445.934,506.028 446.309,506.585C447.474,508.312 447.473,508.255 447.941,510.36C448.258,511.015 448.575,511.67 448.891,512.325C449.138,512.698 449.384,513.07 449.631,513.442C451.131,518.386 451.586,518.278 451.645,523.505L451.53,525.501C451.047,528.038 450.818,527.981 451.51,530.5L451.648,533.495C451.755,539.351 450.943,541.078 449.735,543.59L449.467,544.485C449.071,545.121 448.674,545.757 448.277,546.393C447.704,547.576 447.507,547.388 446.934,548.628C446.337,550.522 446.038,550.435 446.298,552.428C446.605,554.785 443.567,555.572 442.563,560.534C442.218,561.196 441.873,561.858 441.528,562.52C440.286,564.155 440.447,564.236 440.332,564.37C437.231,565.474 437.919,567.267 436.6,568.614C434.287,570.374 434.334,570.323 432.593,572.579C432.256,572.918 431.92,573.257 431.583,573.596C429.929,575.029 430.084,575.067 428.582,576.622C427.722,577.192 425.22,577.702 424.455,578.442C424.132,578.755 420.603,582.17 420.407,582.352C418.339,582.71 418.46,582.793 416.482,583.464C415.466,584.439 412.947,584.874 412.622,584.931C409.301,586.617 409.321,586.568 405.63,586.998C404.649,587.326 403.668,587.654 402.687,587.982C401.958,588.79 402.011,588.721 401.958,588.79C401.645,589.198 401.921,589.263 401.619,589.657C397.452,590.661 381.218,590.296 378.403,589.754L378.507,588.493C376.696,587.317 376.604,587.919 374.497,587.508C372.398,586.787 372.476,586.818 370.352,585.931C363.973,583.752 363.128,583.638 362.476,583.55C361.567,582.877 361.498,583.176 360.558,582.42C360.231,582.077 359.904,581.733 359.576,581.39C355.829,578.777 355.897,578.7 354.407,578.651C353.908,578.225 349.126,575.652 342.433,567.544C341.846,566.828 341.26,566.112 340.673,565.397C340.57,564.797 340.467,564.198 340.364,563.598C340.221,562.715 340.401,561.266 337.608,560.441L337.427,559.533C337.135,558.847 336.844,558.161 336.553,557.476C336.279,557.106 336.004,556.736 335.73,556.366C335.441,556.011 335.153,555.656 334.864,555.3C335.031,553.81 334.849,553.912 334.322,552.574C334.133,550.957 334.061,551.025 333.409,549.531L333.111,547.623C332.707,546.787 332.683,546.859 331.69,545.417L331.119,543.644C330.894,543.27 330.669,542.895 330.443,542.52L330.297,541.508C330.918,540.115 331.044,540.197 331.112,538.656C330.483,538.291 329.854,537.927 329.225,537.562C328.421,534.199 327.987,524.602 329.47,518.493C329.793,518.128 331.279,516.446 330.894,512.573C331.018,512.246 332.387,508.65 332.475,508.489L333.352,508.367C333.445,507.959 334.024,507.779 334.117,507.371C334.386,506.197 333.479,504.518 335.353,502.414C336.046,501.637 336.521,499.782 336.583,499.54C337.006,498.997 336.995,499.072 337.422,498.463C338.089,497.514 337.899,497.514 338.434,496.45C340.572,494.98 339.777,494.408 341.311,492.403C342.508,490.819 343.336,486.53 352.464,480.447C360.403,476.976 361.376,475.764 362.31,474.27C367.244,471.932 367.128,471.813 367.582,471.691L368.476,471.426C369.977,471.9 369.956,471.872 371.452,471.306L373.378,471.088C374.021,470.756 374.663,470.424 375.306,470.092C376.076,469.567 375.857,469.399 376.586,468.913C378.205,469.12 378.237,469.643 379.593,468.717C383.456,466.076 394.119,466.488 399.35,467.814ZM301.591,353.978C309.693,353.182 309.801,351.456 317.581,354.093C318.27,354.422 318.959,354.75 319.648,355.079L321.547,355.336C322.551,355.679 323.554,356.022 324.557,356.365C325.221,356.702 325.885,357.039 326.548,357.377C328.432,357.863 328.373,357.964 330.337,357.788C330.699,358.075 331.062,358.361 331.425,358.647C332.111,358.941 332.797,359.235 333.484,359.528C333.836,359.835 334.188,360.141 334.539,360.448C335.207,360.779 335.875,361.11 336.542,361.441C336.863,361.793 337.183,362.145 337.503,362.497C338.136,362.879 338.769,363.262 339.401,363.645C342.155,365.884 341.765,366.191 344.482,368.519C344.94,369.095 345.397,369.67 345.855,370.246C346.109,370.641 346.362,371.037 346.616,371.432C347.297,372.339 346.936,372.462 347.708,373.383C347.992,373.74 348.277,374.096 348.561,374.452C348.934,375.445 349.307,376.437 349.68,377.429C350.915,379.234 352.46,381.712 354.52,388.493C354.798,388.84 355.076,389.188 355.354,389.535C355.041,390.93 354.977,390.86 354.981,392.357C355.928,393.62 356.038,393.461 356.111,393.572C356.126,395.214 356.141,396.857 356.156,398.499L356.154,401.502C356.073,402.869 355.992,404.236 355.911,405.604C355.558,406.245 355.205,406.886 354.853,407.528C354.849,408.217 354.845,408.907 354.841,409.596C353.279,413.478 353.073,413.288 352.963,413.627L352.828,416.574L353.079,417.337C352.856,417.711 352.633,418.086 352.411,418.46C350.999,420.289 350.854,420.182 350.507,422.504C349.698,423.328 350.108,423.538 349.302,424.371C347.885,426.005 347.823,425.829 346.663,427.618C344.324,429.26 344.67,429.496 342.578,431.578C338.351,435.784 338.731,435.975 338.366,436.328C333.316,437.559 334.213,439.452 328.462,441.401C325.426,442.223 325.716,442.66 324.422,443.347C322.801,444.139 322.851,444.01 321.373,445.1C320.871,445.179 320.817,444.856 320.412,445.25C320.34,445.321 319.683,445.959 319.405,446.003C318.12,446.205 316.788,445.821 315.503,446.023C311.835,446.024 308.168,446.024 304.5,446.024L302.438,445.673C301.329,444.983 301.423,445.028 301.329,444.983C300.88,444.765 300.87,445.03 300.44,444.822C299.74,444.539 299.041,444.257 298.342,443.974C296.099,443.43 296.264,443.24 294.362,441.942L291.523,441.448C291.184,441.327 288.554,440.387 287.429,439.589C287.138,439.206 286.846,438.822 286.555,438.439C285.18,437.432 285.157,437.632 283.419,437.632C283.059,437.311 282.698,436.99 282.338,436.669C280.591,434.381 280.688,434.401 278.476,432.523C276.592,430.277 276.474,430.532 274.443,428.537L274.274,427.605C272.917,425.496 273.472,425.166 271.403,423.579C269.948,421.502 270.348,421.294 268.703,419.399C268.818,418.475 268.932,417.55 269.047,416.626C267.997,415.15 267.276,415.403 267.088,411.625C266.753,410.632 266.419,409.639 266.085,408.646C265.434,407.53 265.415,407.622 264.971,406.479C265.107,405.449 265.372,403.451 265.202,393.485C265.905,390.243 266.86,387.848 267.049,387.374C267.363,385.642 267,385.5 268.349,384.354C268.349,384.354 269.007,383.444 269.064,383.365C269.647,378.591 269.634,378.682 269.651,378.589C269.995,377.927 270.339,377.265 270.684,376.604C271.563,375.546 271.5,375.636 271.563,375.546C271.875,375.095 271.381,375.027 271.675,374.601C272.645,373.953 272.783,374.284 273.419,373.436C273.487,373.345 273.419,373.436 274.389,372.407C274.503,372.271 274.239,372.134 275.449,370.464C277.619,368.552 277.745,368.766 279.422,366.411C279.507,366.337 280.488,365.486 280.488,365.486C281.4,364.745 281.019,364.567 281.582,363.594C282.497,362.857 282.527,363.041 283.38,362.311C284.24,361.575 284.397,361.988 285.382,361.318C285.741,361.019 286.099,360.72 286.458,360.421C292.222,358.195 292.182,358.305 293.531,357.56C294.482,357.108 295.433,356.657 296.384,356.205C296.703,356.046 298.406,355.193 300.523,354.568L301.591,353.978ZM632.465,484.913C634.337,485.924 634.276,486.1 636.454,485.956L637.422,485.973C638.691,487.08 640.363,487.928 640.637,488.067C642.028,488.672 642.143,487.801 643.546,488.41C643.616,488.44 642.971,488.453 643.625,489.365C643.788,489.593 644.258,489.403 644.421,489.63C646.98,490.348 646.925,490.371 647.528,490.448L648.41,490.671C650.397,492.172 650.623,491.737 652.59,493.322C653.065,493.617 653.115,493.129 653.564,493.408C653.661,493.469 653.564,493.408 654.569,494.432C657.801,498.31 657.721,498.289 661.549,501.45C661.899,501.776 662.249,502.102 662.6,502.428C663.032,503.369 662.364,503.405 662.766,504.281C662.973,504.731 663.283,504.027 663.538,504.472C664.111,505.471 663.801,505.531 664.461,506.517C664.85,507.099 664.857,506.991 665.359,507.591C665.689,507.929 666.02,508.267 666.351,508.605C666.01,510.044 665.967,509.955 665.909,511.391C666.471,511.743 667.034,512.094 667.596,512.445C667.974,513.765 668.351,515.085 668.729,516.405L668.983,517.292C670.977,520.196 670.927,522.835 671.023,525.497L671.023,531.502C670.761,533.479 670.499,535.456 670.238,537.433L669.755,538.57C669.388,539.568 669.021,540.567 668.653,541.565C666.798,545.277 666.849,545.296 666.613,545.567C665.08,550.291 664.677,550.123 664.581,550.542C664.134,552.492 662.674,552.659 662.673,552.66C662.206,553.971 662.052,553.932 662.336,555.359C661.688,556.051 656.971,562.303 654.467,563.443C651.305,564.819 650.652,563.818 648.624,566.637C647.462,567.5 647.509,567.463 646.427,568.355C645.219,568.61 645.313,568.608 644.409,569.324L643.549,569.612C642.047,569.128 642.064,569.113 640.566,569.643C640.212,569.932 639.858,570.22 639.504,570.509C638.5,570.628 637.497,570.747 636.494,570.866C635.43,571.32 633.786,571.802 633.547,571.872C626.198,572.145 626.246,572.198 622.498,572.207L621.515,572.224C620.841,571.988 620.168,571.752 619.494,571.517C618.485,571.209 617.475,570.901 616.466,570.593C613.636,569.487 613.632,569.72 610.671,569.093C610.297,568.86 609.923,568.626 609.55,568.392C607.523,566.833 608.06,566.023 605.498,565.506C605.243,565.373 603.516,564.478 602.399,563.691L601.565,563.414C598.91,560.87 596.841,556.929 594.445,556.553C593.525,555.44 593.576,555.503 592.676,554.396C592.532,552.736 592.475,552.787 591.429,551.555C590.32,550.295 590.71,550.158 590.358,548.568C590.245,548.061 590.163,548.141 588.547,546.479L588.045,543.65C587.764,542.959 587.484,542.268 587.203,541.578C586.904,540.929 586.604,540.28 586.304,539.63C585.963,539.288 585.621,538.946 585.28,538.603C584.338,535.496 584.753,535.528 584.673,531.502L584.67,525.498C584.877,521.395 584.381,521.397 585.665,517.555C587.457,514.374 586.859,514.075 589.371,511.397C591.075,509.58 590.741,507.889 590.678,507.572C590.622,507.291 590.623,507.294 592.381,504.432L592.68,503.627C592.962,503.274 594.934,500.801 596.399,499.389C596.487,499.318 597.507,498.508 597.507,498.508C599.049,497.376 598.708,497.194 599.585,495.6C599.811,495.422 599.776,495.533 602.525,493.539C604.426,493.291 604.211,492.914 605.587,491.617C607.212,490.712 607.197,490.803 608.595,489.665C612.226,489.217 612.049,488.89 615.453,487.355L617.38,487.094C618.073,486.797 618.766,486.5 619.459,486.203C620.452,485.873 621.445,485.543 622.438,485.213C623.13,485.195 623.821,485.177 624.512,485.159C626.504,485.172 628.495,485.186 630.487,485.199C631.146,485.104 631.805,485.008 632.465,484.913ZM744.544,385.768C750.202,385.749 750.229,384.923 754.559,386.38L754.723,387.268C756.528,387.86 756.465,387.971 758.318,387.812C759.698,389.065 759.547,389.281 761.418,389.639C761.942,390.058 764.783,392.332 767.315,395.614L767.663,397.437C767.905,398.141 768.148,398.844 768.391,399.548C768.642,400.01 770.504,403.438 771.166,405.517L771.16,406.501L771.161,411.498C770.933,412.495 770.705,413.492 770.478,414.489C769.085,415.664 769.025,415.525 768.932,415.649C768.796,416.936 768.66,418.224 768.525,419.512C768.153,420.154 767.782,420.795 767.411,421.437C767.049,422.087 766.688,422.736 766.327,423.386C764.125,426.392 763.972,426.254 760.577,427.686C759.57,427.992 758.563,428.298 757.555,428.604C757.319,428.775 754.64,430.714 754.607,430.746C754.229,430.889 753.851,431.032 753.473,431.174C748.964,431.169 749.047,431.117 744.478,430.813L742.532,430.416C739.884,428.518 739.889,428.544 736.605,428.331C736.253,428.031 735.902,427.73 735.551,427.429C732.856,424.534 732.899,424.628 730.34,421.587C729.914,420.996 729.98,421.034 729.537,420.474C728.865,419.626 728.725,419.97 727.778,419.381C728.148,417.633 727.855,417.662 726.624,416.448C724.793,410.602 725.729,410.564 726.021,404.348L726.256,403.411L727.226,402.376C727.796,400.549 727.959,400.629 727.795,398.671C728.1,398.319 728.404,397.967 728.709,397.615C729.011,396.932 729.313,396.249 729.615,395.566C731.6,392.92 731.661,393.06 734.333,391.167C734.949,390.767 734.914,390.849 735.459,390.435C736.029,390.003 735.916,389.996 736.474,389.46C736.852,389.202 737.229,388.944 737.606,388.686C738.689,387.826 738.583,387.856 738.689,387.826C739.151,387.693 738.964,388.232 739.378,388.113C740.377,387.814 741.375,387.514 742.374,387.215C743.097,386.733 743.821,386.25 744.544,385.768ZM649.507,385.723C651.811,385.761 654.115,385.798 656.419,385.835C657.498,386.458 657.5,386.354 660.543,387.414L661.428,387.647C662.479,388.528 663.272,389.444 663.418,389.613C664.649,390.506 665.134,390.014 665.574,391.453C665.952,392.691 670.022,395.155 671.296,396.634C672.247,397.661 673.104,399.349 673.232,399.602C673.506,401.608 673.4,401.574 673.755,402.393C675.266,408.431 675.138,408.474 673.711,414.59C673.458,414.955 673.205,415.32 672.951,415.685L672.728,416.587C672.323,417.895 671.919,419.202 671.515,420.51C669.723,422.278 669.923,422.371 668.481,424.482C667.614,424.957 667.533,424.369 666.73,424.808C666.304,425.041 666.865,425.274 666.531,425.549C663.973,427.652 663.839,427.456 663.644,427.666C662.639,428.54 662.668,428.576 662.558,428.61C661.084,429.063 661.044,428.514 659.62,428.951C658.97,429.258 658.32,429.565 657.67,429.872C656.16,430.819 656.167,430.682 654.503,431.126C652.175,431.148 649.848,431.17 647.52,431.192C644.771,430.212 644.761,430.298 642.568,428.315C641.534,428.06 640.5,427.804 639.466,427.548C639.102,427.281 638.737,427.014 638.373,426.746C636.658,425.474 636.596,425.661 636.462,425.54C636.298,425.382 635.443,424.559 634.435,423.555C634.124,423.203 633.812,422.851 633.5,422.5C633.153,421.842 632.806,421.185 632.458,420.527C632.341,420.348 631.711,419.387 630.985,418.292L631.182,417.56C631.123,416.589 631.064,415.619 631.005,414.649C629.961,412.316 629.933,412.387 629.684,411.514C629.707,410.951 629.845,407.485 630.043,404.471L630.476,402.491C630.907,401.09 631.017,401.14 630.761,399.642C632.432,397.731 631.93,397.505 633.481,395.485C636.759,392.617 636.526,392.511 639.414,389.37C640.992,388.853 640.778,388.5 642.36,388.032C643.469,387.734 643.354,387.595 644.487,387.461C646.591,387.21 646.392,386.798 648.38,386.106L649.507,385.723ZM704.418,334.832C706.695,335.606 706.473,336.006 706.675,336.04C707.525,336.184 707.453,335.699 708.359,335.873C710.346,336.117 712.343,338.072 712.625,338.348C713.597,339.451 713.542,339.389 714.525,340.48C716.231,342.87 716.306,342.699 718.614,344.423L719.221,344.681C718.922,346.173 718.717,346.156 719.392,347.555C719.563,347.708 720.47,348.521 721.504,349.498C722.047,350.294 724.543,353.952 722.506,361.502L721.835,361.77C721.423,363.031 721.011,364.292 720.599,365.553C720.202,365.851 719.805,366.15 719.408,366.449C718.697,367.821 718.909,367.807 719.243,369.325C719.132,369.451 719.039,369.229 717.612,370.654C717.225,370.887 715.343,372.021 713.594,374.623C712.886,374.904 712.179,375.185 711.472,375.465C711.133,376.116 710.795,376.766 710.456,377.416C708.815,377.821 707.175,378.226 705.534,378.63L703.672,378.941C703.303,379.189 702.934,379.437 702.565,379.685C700.563,379.791 698.561,379.898 696.558,380.005C696.407,379.881 695.314,378.989 694.419,378.811C693.73,378.506 693.04,378.201 692.351,377.897C691.414,377.738 690.477,377.58 689.539,377.421C688.683,376.784 689.161,376.409 688.256,375.867C687.75,375.565 687.041,375.767 686.535,375.464C684.299,372.596 684.778,372.086 681.595,370.423C681.296,370.076 680.997,369.729 680.697,369.382C680.124,365.191 678.238,361.65 678.221,361.593C678.066,360.9 677.912,360.207 677.757,359.515C677.751,357.838 677.746,356.162 677.74,354.486C677.889,353.787 678.037,353.089 678.186,352.39C678.324,351.959 678.806,352.123 679.69,346.616C679.832,346.365 680.798,344.667 681.541,343.529C684.567,343.098 683.835,342.085 684.673,340.672C684.981,340.314 685.29,339.957 685.599,339.6C689.024,338.981 688.543,338.248 689.296,337.224C695.368,334.487 697.495,333.39 704.418,334.832ZM696.525,436.984C699.514,437.134 699.422,437.294 702.499,436.976C704.199,437.373 704.191,437.137 705.686,438.059C707.515,438.977 707.618,438.603 709.462,439.585C709.723,439.707 711.483,440.531 712.59,441.36C713.158,441.506 713.726,441.652 714.294,441.797C714.654,442.084 715.014,442.37 715.375,442.656C715.999,444.037 716.038,444.037 717.4,444.586C717.618,445.286 717.631,445.18 718.391,446.551C718.781,447.52 719.171,448.489 719.561,449.458C719.874,451.08 719.956,450.991 720.642,452.442C721.006,453.44 721.369,454.439 721.733,455.437L722.216,456.5C722.193,457.792 722.165,457.765 721.813,462.514C721.512,463.219 721.211,463.923 720.91,464.627C720.937,466.129 721.001,466.067 721.398,467.466C721.35,467.782 721.302,468.097 721.254,468.413C720.698,468.789 720.142,469.165 719.586,469.541C719.122,470.895 718.979,470.821 719.16,472.292L718.639,472.589C716.6,474.626 716.405,474.36 714.594,476.585C713.858,477.279 713.159,477.209 711.446,478.378C710.246,479.197 710.455,479.285 709.388,480.332C709.242,480.43 708.324,481.05 707.406,481.28C707.269,481.305 707.274,481.312 703.515,482.573C699.931,482.638 700.037,482.652 696.481,482.614C695.106,482.061 695.179,481.871 693.662,482.081C693.311,481.816 692.96,481.551 692.608,481.286C692.266,480.974 691.924,480.662 691.582,480.349C687.833,477.543 687.382,478.387 685.385,476.62L684.68,476.322C683.362,474.077 683.368,474.162 681.401,472.571C681.137,472.195 680.873,471.82 680.609,471.444C680.307,471.089 680.004,470.734 679.702,470.379C679.376,468.781 679.616,468.723 678.445,467.521C678.883,466.043 678.8,466.057 678.165,464.613C678.027,463.914 677.888,463.215 677.75,462.516C677.761,460.838 677.773,459.161 677.785,457.483C677.941,456.798 678.097,456.113 678.254,455.427C678.837,453.436 679.228,453.587 679.414,451.465C679.503,450.455 679.525,450.564 679.646,449.585C680.861,448.242 680.736,448.248 681.575,446.56C685.739,444.387 684.478,442.862 688.533,440.547L689.357,440.267C690.492,439.479 692.088,439.145 692.338,439.093C693.428,438.375 693.348,438.442 693.428,438.375C693.669,438.176 693.346,438.026 693.628,437.794C695.172,437.458 695.141,437.617 696.525,436.984ZM479.359,572.994C479.716,573.213 480.074,573.432 480.431,573.651C480.783,573.943 481.134,574.234 481.486,574.526C483.349,575.937 483.474,575.512 485.442,576.567C487.411,578.721 487.349,578.627 489.415,580.564C490.157,581.492 489.898,581.541 490.587,582.456C491,583.761 491.414,585.065 491.827,586.369L492.376,587.511L492.321,592.473C492.114,593.167 491.907,593.861 491.699,594.555C490.956,595.729 490.982,595.621 490.956,595.729C490.856,596.148 491.385,595.938 491.273,596.405C490.726,596.805 490.179,597.205 489.632,597.605C488.956,598.526 489.222,598.614 488.563,599.545C486.64,601.158 486.661,601.105 485.363,603.327C485.016,603.622 484.669,603.917 484.322,604.213C483.166,604.398 483.275,604.485 482.371,605.263C481.459,605.168 480.546,605.073 479.634,604.978C478.933,605.268 478.231,605.558 477.53,605.848C475.182,605.74 472.835,605.632 470.488,605.524C465.383,603.485 465.582,603.208 461.531,599.474C461.232,599.124 460.934,598.775 460.635,598.425L460.086,595.658C459.863,595.283 459.64,594.908 459.418,594.533L458.987,593.465C459.25,589.41 458.888,589.451 459.354,585.453C460.155,584.151 460.018,584.134 459.741,582.59C460.713,582.013 460.852,582.365 461.537,581.526C462.736,580.054 462.221,579.812 463.428,578.427C465.609,576.45 468.839,575.227 469.602,574.718C471.373,573.539 471.34,573.621 473.506,573.38C475.507,574.085 475.521,574.076 477.487,573.378C478.111,573.25 478.735,573.122 479.359,572.994ZM543.642,572.945C544.264,573.112 544.885,573.279 545.506,573.446C547.482,574.099 547.494,574.102 549.487,573.386C550.171,573.393 550.854,573.401 551.538,573.408L552.385,573.721C552.733,574.025 553.081,574.329 553.429,574.633C557.515,577.54 557.611,577.316 561.406,580.57L561.653,581.422C561.648,583.986 562.116,583.825 562.931,586.289C563.19,586.665 563.449,587.041 563.708,587.417C564.091,589.527 564.002,589.45 563.846,591.583L563.597,592.536C562.463,595.235 562.48,595.222 562.372,595.451C562.256,595.696 562.032,595.378 561.904,595.649C561.802,596.618 561.701,597.588 561.599,598.557L561.295,599.338C558.514,600.904 558.796,601.14 556.458,603.44C554.366,605.497 553.714,604.405 551.472,606.413C547.426,605.821 547.524,605.832 543.433,605.693C541.56,605.131 541.611,605.036 539.667,605.22C534.03,599.803 533.879,600.049 533.522,599.478C533.197,598.957 533.318,598.254 533.072,597.691C532.911,597.325 531.44,595.758 531.289,595.598C529.378,589.618 530.397,589.578 531.411,583.463L532.239,583.317C533.518,579.963 533.536,579.986 533.614,579.612C533.97,579.302 534.326,578.992 534.682,578.682C538.916,576.059 539.351,576.848 542.603,573.706L543.642,572.945ZM504.496,472.024C511.915,471.696 521.034,471.97 522.471,472.013C521.849,472.222 521.125,471.817 520.503,472.026C519.491,472.366 519.665,473.754 507.517,473.295C505.627,473.224 505.884,472.608 504.496,472.024ZM592.381,504.432C590.623,507.294 590.622,507.291 590.678,507.572C590.741,507.889 591.075,509.58 589.371,511.397C586.859,514.075 587.457,514.374 585.665,517.555C586.293,511.81 589.001,509.54 589.509,507.505C589.59,507.179 590.161,504.891 592.381,504.432ZM346.663,427.618L347.388,427.425C347.059,427.859 342.882,435.627 338.366,436.328C338.731,435.975 338.351,435.784 342.578,431.578C344.67,429.496 344.324,429.26 346.663,427.618ZM565.491,447.49C564.927,448.481 565.155,448.55 564.398,449.412C563.838,450.05 558.748,455.85 556.521,456.523C556.729,456.305 556.435,455.846 556.643,455.628C556.842,455.42 557.297,455.705 557.499,455.499C557.658,455.337 557.5,455.223 559.322,453.327C560.214,452.399 560.472,451.684 560.531,451.521C561.044,450.094 565.13,447.779 565.491,447.49ZM479.359,572.994C478.735,573.122 478.111,573.25 477.487,573.378C476.16,573.379 474.833,573.379 473.506,573.38C471.34,573.621 471.373,573.539 469.602,574.718C468.839,575.227 465.609,576.45 463.428,578.427C464.131,575.157 466.123,575.813 466.501,575.502C470.111,572.532 471.036,572.034 479.359,572.994ZM531.289,595.598C531.44,595.758 532.911,597.325 533.072,597.691C533.318,598.254 533.197,598.957 533.522,599.478C533.879,600.049 534.03,599.803 539.667,605.22L538.624,605.283C535.581,602.645 532.056,601.834 531.289,595.598ZM446.934,548.628C447.478,550.514 447.471,550.466 447.449,552.476C446.663,554.241 446.495,556.129 442.583,561.552L442.563,560.534C443.567,555.572 446.605,554.785 446.298,552.428C446.038,550.435 446.337,550.522 446.934,548.628ZM362.31,474.27C361.376,475.764 360.403,476.976 352.464,480.447C353.131,479.799 358.325,474.752 362.31,474.27ZM349.636,375.416C350.847,376.953 352.951,381.099 353.21,381.609C354.142,383.446 353.803,383.495 354.439,385.52C354.466,386.511 354.493,387.502 354.52,388.493C352.46,381.712 350.915,379.234 349.68,377.429L349.636,375.416ZM663.418,389.613L664.456,389.565C667.373,390.1 670.894,393.775 671.296,396.634C670.022,395.155 665.952,392.691 665.574,391.453C665.134,390.014 664.649,390.506 663.418,389.613ZM629.509,402.502C629.687,403.158 629.865,403.815 630.043,404.471C629.845,407.485 629.707,410.951 629.684,411.514C629.617,412.511 629.549,413.507 629.482,414.504C628.036,408.561 627.99,408.516 629.509,402.502ZM338.366,436.328C338.02,436.684 338.627,436.801 338.247,437.192C337.893,437.557 337.759,436.973 337.379,437.344C337.175,437.543 337.454,438.009 337.23,438.185C336.431,438.811 331.948,441.214 331.482,441.464C328.593,441.436 328.704,441.399 328.462,441.401C334.213,439.452 333.316,437.559 338.366,436.328ZM267.088,411.625C267.276,415.403 267.997,415.15 269.047,416.626C268.667,417.988 268.658,417.907 268.703,419.399C270.348,421.294 269.948,421.502 271.403,423.579C270.997,423.289 270.346,423.55 269.94,423.259C269.424,422.89 266.92,416.084 266.687,415.449C266.82,414.174 266.954,412.9 267.088,411.625ZM428.582,576.622L429.46,576.45C426.378,578.893 426.16,578.476 423.355,581.27C422.617,582.005 420.655,582.313 420.407,582.352C420.603,582.17 424.132,578.755 424.455,578.442C425.22,577.702 427.722,577.192 428.582,576.622ZM542.603,573.706C539.351,576.848 538.916,576.059 534.682,578.682C535.421,577.777 534.968,577.603 535.691,576.7C538.153,573.621 542,573.694 542.603,573.706ZM767.315,395.614C767.725,396.015 771.037,397.951 771.166,405.517C770.504,403.438 768.642,400.01 768.391,399.548C768.148,398.844 767.905,398.141 767.663,397.437L767.315,395.614ZM461.531,599.474C465.582,603.208 465.383,603.485 470.488,605.524C469.497,605.507 468.505,605.49 467.513,605.473C467.026,605.185 462.448,602.479 461.828,601.248C461.559,600.712 461.801,600.009 461.531,599.474ZM459.354,585.453C458.888,589.451 459.25,589.41 458.987,593.465C458.663,593.194 458.028,593.852 457.766,592.446C456.853,587.557 458.915,585.822 459.354,585.453ZM744.478,430.813C749.047,431.117 748.964,431.169 753.473,431.174C748.623,433.05 748.463,433.025 743.549,431.243L744.478,430.813ZM446.845,375.621C447.056,377.74 446.585,377.611 445.753,379.604C445.524,381.507 445.516,381.469 446.07,383.371C445.47,384.843 445.438,384.748 445.074,386.36C444.518,384.923 444.563,384.982 444.228,383.44C445.037,379.303 444.804,379.267 446.845,375.621ZM480.353,462.965C481.885,463.953 481.756,464.038 483.322,464.866C484.576,465.529 484.342,465.782 485.533,466.442L483.474,466.561C481.267,465.969 481.659,465.197 479.437,464.608C478.01,464.23 477.923,464.167 477.812,464.088C477.431,463.816 478.004,463.584 477.623,463.312C479.05,463.32 478.972,463.318 480.353,462.965ZM553.429,574.633L555.426,574.641C556.345,575.349 556.474,575.054 557.325,575.764C561.978,579.642 561.217,580.234 561.406,580.57C557.611,577.316 557.515,577.54 553.429,574.633ZM686.681,440.751C687.299,440.683 687.916,440.615 688.533,440.547C684.478,442.862 685.739,444.387 681.575,446.56C682.449,442.653 685.25,441.96 686.681,440.751ZM594.445,556.553C596.841,556.929 598.91,560.87 601.565,563.414C600.567,562.846 600.538,563.049 599.652,562.325C599.162,561.924 595.342,559.899 594.445,556.553ZM440.159,492.64C441.275,493.534 441.344,493.484 441.365,493.606C441.553,494.738 442.216,494.336 442.528,495.479C442.604,495.756 442.721,496.183 444.363,498.565L444.355,500.568C441.775,496.793 441.136,497.12 440.159,492.64ZM546.42,463.398C546.204,463.547 546.498,464.025 546.282,464.173C545.77,464.523 539.98,467.052 539.427,467.294C538.836,467.154 538.244,467.014 537.653,466.874C538.046,466.693 542.47,464.651 542.574,464.624C543.913,464.279 543.631,463.506 546.42,463.398ZM445.071,416.641C445.435,418.255 445.468,418.16 446.075,419.635C445.558,421.526 445.562,421.468 445.742,423.402L446.156,423.598C446.022,424.206 445.888,424.815 445.755,425.423C444.74,422.375 444.773,422.483 443.879,419.422C444.443,418.012 444.491,418.108 445.071,416.641ZM722.365,455.511C724.276,459.632 723.993,460.112 722.385,463.488L721.813,462.514C722.165,457.765 722.193,457.792 722.216,456.5L722.365,455.511ZM542.514,337.471C544.234,337.728 544.255,337.655 544.372,337.749C545.614,338.746 545.949,337.995 547.191,338.975C548.619,340.103 548.202,340.365 549.506,341.49C544.404,339.081 544.073,339.509 542.514,337.471ZM328.462,441.401C328.704,441.399 328.593,441.436 331.482,441.464C331.152,441.602 328.575,442.679 327.498,443.494C324.628,443.329 324.666,443.38 324.422,443.347C325.716,442.66 325.426,442.223 328.462,441.401ZM681.595,370.423C684.778,372.086 684.299,372.596 686.535,375.464C682.445,374.697 682.436,371.465 681.595,370.423ZM412.622,584.931C413.551,585.04 414.48,585.15 415.409,585.26C412.982,586.596 412.983,586.351 410.446,587.32C408.009,587.464 408.052,587.64 405.63,586.998C409.321,586.568 409.301,586.617 412.622,584.931ZM336.544,498.521L336.583,499.54C336.521,499.782 336.046,501.637 335.353,502.414C333.479,504.518 334.386,506.197 334.117,507.371C334.024,507.779 333.445,507.959 333.352,508.367C333.384,507.405 333.416,506.443 333.448,505.482C334.455,500.204 335.301,500.6 336.544,498.521ZM685.385,476.62C687.382,478.387 687.833,477.543 691.582,480.349L689.523,480.447C688.043,479.363 687.94,479.627 686.512,478.485C685.608,477.764 685.963,477.576 685.385,476.62ZM266.679,384.546C266.803,385.489 266.926,386.431 267.049,387.374C266.86,387.848 265.905,390.243 265.202,393.485L264.904,392.537C264.706,390.4 264.426,390.395 264.863,389.619C266.206,387.232 265.532,387.019 266.679,384.546ZM717.612,370.654C716.788,373.968 716.378,373.797 713.475,375.472L713.594,374.623C715.343,372.021 717.225,370.887 717.612,370.654ZM585.28,538.603C585.621,538.946 585.963,539.288 586.304,539.63C586.604,540.28 586.904,540.929 587.203,541.578C587.484,542.268 587.764,542.959 588.045,543.65C587.968,544.564 587.892,545.479 587.815,546.393C587.516,545.849 586.096,544.609 585.28,538.603ZM362.476,583.55C363.128,583.638 363.973,583.752 370.352,585.931C369.42,586.07 368.489,586.208 367.557,586.346C364.865,585.132 364.781,585.462 362.476,583.55ZM654.467,563.443C653.654,564.174 653.976,564.375 653.203,565.108C652.896,565.398 652.527,564.629 648.449,567.407L648.624,566.637C650.652,563.818 651.305,564.819 654.467,563.443ZM290.473,357.445C291.493,357.484 292.512,357.522 293.531,357.56C292.182,358.305 292.222,358.195 286.458,360.421L286.613,359.703C287.16,359.241 290.159,357.616 290.473,357.445ZM640.412,428.66C641.131,428.545 641.849,428.43 642.568,428.315C644.761,430.298 644.771,430.212 647.52,431.192C645.257,430.8 644.409,432.158 640.412,428.66ZM668.653,541.565C668.53,544.017 668.513,543.948 668.535,544.512C667.626,546.606 668.051,546.716 666.61,548.568C666.575,548.146 666.591,548.186 666.613,545.567C666.849,545.296 666.798,545.277 668.653,541.565ZM678.221,361.593C678.238,361.65 680.124,365.191 680.697,369.382C679.074,367.747 679.651,367.467 678.497,365.501C678.492,365.364 678.49,365.368 678.221,361.593ZM757.555,428.604C760.399,428.347 760.323,428.351 760.403,428.35C758.225,430.829 757.907,430.387 754.607,430.746C754.64,430.714 757.319,428.775 757.555,428.604ZM354.841,409.596C354.565,414.116 354.492,414.098 354.472,414.49C354.008,415.439 353.543,416.388 353.079,417.337L352.828,416.574C353.659,415.215 353.401,415.187 352.963,413.627C353.073,413.288 353.279,413.478 354.841,409.596ZM736.605,428.331C739.889,428.544 739.884,428.518 742.532,430.416L740.482,430.555C737.128,428.98 737.017,429.317 736.754,429.136C736.529,428.981 736.829,428.486 736.605,428.331ZM479.634,604.978C481.033,605.338 480.973,605.391 482.371,605.263C483.275,604.485 483.166,604.398 484.322,604.213C484.118,604.422 484.407,604.873 484.203,605.082C483.454,605.852 479.903,606.496 479.516,606.567L478.498,606.493L477.53,605.848C478.231,605.558 478.933,605.268 479.634,604.978ZM405.63,586.998C408.052,587.64 408.009,587.464 410.446,587.32C409.13,587.711 407.814,588.103 406.498,588.494C404.489,588.451 404.575,588.375 402.687,587.982C403.668,587.654 404.649,587.326 405.63,586.998ZM451.584,436.457C452.522,437.565 452.686,437.297 453.593,438.437C454.62,439.728 454.206,439.803 454.343,441.607C452.744,439.695 453.034,439.625 451.589,437.458L451.584,436.457ZM404.418,468.915C408.044,469.546 407.987,469.42 411.47,470.584C409.487,470.58 409.557,470.681 407.63,471.088C407.355,470.944 407.485,470.886 404.418,468.915ZM604.441,565.592L605.498,565.506C608.06,566.023 607.523,566.833 609.55,568.392C605.215,567.658 604.856,565.978 604.441,565.592ZM449.485,369.491C449.461,370.478 449.437,371.466 449.414,372.453C448.579,373.593 448.643,373.52 447.613,374.56C447.593,371.704 447.574,371.655 449.485,369.491ZM588.547,546.479C590.163,548.141 590.245,548.061 590.358,548.568C590.71,550.158 590.32,550.295 591.429,551.555L590.731,551.323C590.571,551.101 590.076,551.455 589.917,551.234C589.73,550.974 590.084,550.853 588.465,547.513L588.547,546.479ZM447.331,427.572C449.346,429.935 449.644,432.888 449.695,433.388C449.549,433.167 449.059,433.473 448.913,433.253C448.777,433.047 447.989,431.855 447.673,430.427C447.352,428.981 447.478,429.042 447.331,427.572ZM551.513,460.521C549.18,462.421 549.454,462.973 546.42,463.398C548.367,461.034 548.411,460.937 551.513,460.521ZM612.514,487.539C613.493,487.478 614.473,487.417 615.453,487.355C612.049,488.89 612.226,489.217 608.595,489.665C608.807,489.529 608.547,489.064 608.758,488.927C609.028,488.754 609.124,489.059 612.514,487.539ZM444.363,498.565C445.421,500.601 445.374,500.506 446.362,502.562C446.393,503.143 446.374,503.072 446.294,505.527C446.173,505.119 445.411,502.548 444.355,500.568L444.363,498.565ZM577.38,427.445C577.262,430.527 577.154,430.55 575.477,432.491C575.511,431.508 575.545,430.526 575.579,429.543C576.477,428.435 576.424,428.497 577.38,427.445ZM578.056,376.667C578.531,377.613 579.007,378.56 579.483,379.506C579.457,381.493 579.384,381.42 578.937,383.355C578.623,382.361 578.31,381.367 577.996,380.373C578.37,378.846 578.631,378.844 577.841,377.421L578.056,376.667ZM579.483,379.506C579.854,380.831 580.226,382.155 580.598,383.479C580.253,385.464 580.264,385.401 579.917,387.359C579.674,383.43 578.974,383.446 578.937,383.355C579.384,381.42 579.457,381.493 579.483,379.506ZM629.684,411.514C629.933,412.387 629.961,412.316 631.005,414.649C630.7,416.176 630.512,416.178 631.182,417.56L630.985,418.292C630.633,417.609 630.27,418.031 629.893,417.299C629.789,417.098 629.863,417.092 629.482,414.504C629.549,413.507 629.617,412.511 629.684,411.514ZM463.428,578.427C462.221,579.812 462.736,580.054 461.537,581.526C460.852,582.365 460.713,582.013 459.741,582.59C461.349,579.883 460.704,579.038 463.428,578.427ZM271.403,423.579C273.472,425.166 272.917,425.496 274.274,427.605L273.59,427.439C272.2,426.357 271.617,426.631 271.403,423.579ZM580.979,411.67C581.31,413.878 581.342,413.811 581.344,414.486C581.393,417.116 581.215,417.017 580.46,419.491C580.438,418.655 580.408,418.739 579.948,415.655C579.965,415.615 580.645,415.879 580.979,411.67ZM324.422,443.347C324.666,443.38 324.628,443.329 327.498,443.494C325.615,444.303 324.694,445.104 321.373,445.1C322.851,444.01 322.801,444.139 324.422,443.347ZM341.311,492.403C339.777,494.408 340.572,494.98 338.434,496.45L337.637,496.581C340.096,493.183 339.562,492.98 339.811,492.729C340.171,492.365 340.951,492.766 341.311,492.403ZM561.653,581.422C562.913,582.773 563.044,582.659 563.511,584.498C563.318,585.095 563.125,585.692 562.931,586.289C562.116,583.825 561.648,583.986 561.653,581.422ZM579.948,415.655C580.408,418.739 580.438,418.655 580.46,419.491C580.147,421.577 580.088,421.452 579.452,423.484C579.543,421.488 579.547,421.526 578.988,419.635C579.069,419.435 579.711,419.673 579.948,415.655ZM488.411,467.847C489.813,468.648 489.821,468.391 491.376,467.973C492.488,468.515 492.361,468.554 493.524,469.444C492.521,469.449 491.518,469.454 490.515,469.459C489.561,468.999 488.608,468.539 487.654,468.079L488.411,467.847ZM637.422,485.973C641.211,485.937 641.955,487.074 643.463,487.616C642.521,487.766 641.579,487.917 640.637,488.067C640.363,487.928 638.691,487.08 637.422,485.973ZM622.438,485.213C621.445,485.543 620.452,485.873 619.459,486.203C618.766,486.5 618.073,486.797 617.38,487.094C616.773,486.983 616.167,486.872 615.56,486.761C615.719,486.683 617.545,485.789 617.545,485.789C618.751,485.875 618.613,485.55 619.67,484.986C620.42,484.585 620.398,484.843 622.438,485.213ZM696.525,436.984C699.412,435.527 699.629,435.394 702.499,436.976C699.422,437.294 699.514,437.134 696.525,436.984ZM490.505,333.516C491.819,333.452 493.134,333.387 494.448,333.323C492.325,334.036 492.51,334.33 490.382,335.008C489.002,334.697 489.046,334.57 487.61,334.81C488.575,334.379 489.54,333.947 490.505,333.516ZM527.552,332.356C528.523,332.459 529.495,332.561 530.466,332.663C531.953,332.825 531.894,332.968 536.438,334.647C535.714,334.526 535.762,334.373 527.552,332.356ZM705.686,438.059C708.803,437.408 708.685,438.128 711.45,439.592L709.462,439.585C707.618,438.603 707.515,438.977 705.686,438.059ZM636.494,570.866C637.488,571.047 638.483,571.228 639.477,571.408C636.999,572.236 637.069,572.46 634.447,572.234L633.547,571.872C633.786,571.802 635.43,571.32 636.494,570.866ZM298.547,354.726L300.523,354.568C298.406,355.193 296.703,356.046 296.384,356.205L293.43,356.329C295.956,355.278 295.835,355.027 298.547,354.726ZM330.894,512.573C331.279,516.446 329.793,518.128 329.47,518.493C329.945,516.52 330.419,514.546 330.894,512.573ZM329.225,537.562C329.854,537.927 330.483,538.291 331.112,538.656C330.493,540.458 330.396,540.383 330.297,541.508L330.443,542.52C329.462,540.081 329.621,540.123 329.225,537.562ZM331.69,545.417C332.683,546.859 332.707,546.787 333.111,547.623C332.937,548.573 332.762,549.522 332.588,550.471C332.217,549.483 331.847,548.495 331.476,547.507L331.69,545.417ZM689.296,337.224C688.543,338.248 689.024,338.981 685.599,339.6C687.093,337.83 687.091,337.893 689.296,337.224ZM373.484,469.423C374.091,469.646 374.699,469.869 375.306,470.092C374.663,470.424 374.021,470.756 373.378,471.088C371.96,470.554 372.04,470.554 370.472,470.399C371.975,469.778 371.851,469.735 373.484,469.423ZM721.813,462.514L722.385,463.488C722.399,465.617 722.357,465.551 721.398,467.466C721.235,466.52 721.072,465.574 720.91,464.627C721.211,463.923 721.512,463.219 721.813,462.514ZM337.608,560.441C340.401,561.266 340.221,562.715 340.364,563.598C337.965,562.954 338.708,562.124 337.608,560.441ZM659.62,428.951C660.252,429.149 660.885,429.346 661.518,429.544C661.173,429.85 660.829,430.157 660.484,430.464C658.98,430.425 659.057,430.434 657.67,429.872C658.32,429.565 658.97,429.258 659.62,428.951ZM448.418,507.522C448.753,508.521 449.087,509.52 449.422,510.518C449.245,511.12 449.068,511.723 448.891,512.325C448.575,511.67 448.258,511.015 447.941,510.36C448.1,509.414 448.259,508.468 448.418,507.522ZM666.696,509.408C667.432,510.346 667.408,510.268 667.78,511.403L667.596,512.445C667.034,512.094 666.471,511.743 665.909,511.391C666.171,510.73 666.434,510.069 666.696,509.408ZM744.544,385.768C743.821,386.25 743.097,386.733 742.374,387.215C741.428,387.335 740.483,387.455 739.537,387.575C739.74,387.458 739.508,387.013 739.71,386.895C739.973,386.743 739.987,386.779 744.544,385.768ZM449.695,433.388C450.916,434.802 450.785,434.811 451.584,436.457L451.589,437.458C450.175,435.619 449.957,435.732 449.695,433.388ZM317.581,354.093C320.121,353.65 320.106,353.682 322.488,354.558C321.541,354.732 320.594,354.906 319.648,355.079C318.959,354.75 318.27,354.422 317.581,354.093ZM581.726,410.559C582.268,412.553 582.182,412.561 581.344,414.486C581.342,413.811 581.31,413.878 580.979,411.67L581.726,410.559ZM459.643,354.611C458.608,358.231 457.624,357.313 457.428,357.433C457.911,355.655 458.337,355.998 459.643,354.611ZM298.342,443.974C299.041,444.257 299.74,444.539 300.44,444.822L299.556,445.163C297.923,445.172 298.008,444.983 296.571,444.289C297.162,444.184 297.752,444.079 298.342,443.974ZM300.44,444.822C300.87,445.03 300.88,444.765 301.329,444.983C301.423,445.028 301.329,444.983 302.438,445.673C300.897,446.004 300.977,445.757 299.556,445.163L300.44,444.822Z" style="fill:white;fill-opacity:1;"/>
    </g>
</svg>
