<?xml version="1.0" encoding="UTF-8" standalone="no"?>
<!DOCTYPE svg PUBLIC "-//W3C//DTD SVG 1.1//EN" "http://www.w3.org/Graphics/SVG/1.1/DTD/svg11.dtd">
<svg width="100%" height="100%" viewBox="0 0 24 24" version="1.1" xmlns="http://www.w3.org/2000/svg" xmlns:xlink="http://www.w3.org/1999/xlink" xml:space="preserve" xmlns:serif="http://www.serif.com/" style="fill-rule:evenodd;clip-rule:evenodd;stroke-linejoin:round;stroke-miterlimit:2;">
    <g transform="matrix(0.757908,0,0,0.757908,0.174601,1.512135)">
        <g transform="matrix(1.726641,0,0,2.149788,-2.537009,3.693045)">
            <path d="M6.505,4.51L5.801,2.718L3.761,2.718L3.185,4.51L1.721,4.51L3.473,-0.89L7.425,-0.89C8.007,-0.89 8.427,-0.807 8.685,-0.642C8.944,-0.476 9.073,-0.218 9.073,0.134C9.073,0.364 9.025,0.625 8.929,0.918C8.78,1.388 8.569,1.754 8.297,2.018C8.025,2.282 7.663,2.473 7.209,2.59L8.057,4.51L6.505,4.51ZM4.569,0.238L4.113,1.646L6.457,1.646C6.665,1.646 6.844,1.608 6.993,1.53C7.143,1.453 7.268,1.313 7.369,1.11C7.417,1.02 7.46,0.917 7.497,0.802C7.535,0.688 7.553,0.574 7.553,0.462C7.553,0.366 7.521,0.305 7.457,0.278C7.393,0.252 7.297,0.238 7.169,0.238L4.569,0.238Z" style="fill:rgb(146,255,100);fill-opacity:0;fill-rule:nonzero;stroke:white;stroke-width:0.27px;"/>
        </g>
        <g transform="matrix(1.726641,0,0,2.149788,-1.429597,3.693045)">
            <path d="M13.793,4.51L12.633,2.454L10.081,4.51L8.105,4.51L11.993,1.55L10.433,-0.89L12.121,-0.89L13.105,0.742L15.193,-0.89L17.145,-0.89L13.721,1.694L15.513,4.51L13.793,4.51Z" style="fill-opacity:0;fill-rule:nonzero;stroke:white;stroke-width:0.27px;"/>
        </g>
        <g transform="matrix(1.926062,0,0,1.926062,-27.717918,16.644189)">
            <path d="M15.849,4.51L17.601,-0.89L21.585,-0.89C22.151,-0.89 22.58,-0.771 22.873,-0.534C23.167,-0.296 23.313,0.07 23.313,0.566C23.313,0.902 23.263,1.24 23.161,1.578C23.06,1.917 22.929,2.254 22.769,2.59C22.449,3.246 22.044,3.73 21.553,4.042C21.063,4.354 20.489,4.51 19.833,4.51L15.849,4.51ZM19.889,3.39C20.289,3.39 20.615,3.274 20.865,3.042C21.116,2.81 21.321,2.497 21.481,2.102C21.524,2.006 21.567,1.901 21.609,1.786C21.652,1.672 21.692,1.554 21.729,1.434C21.767,1.314 21.796,1.194 21.817,1.074C21.839,0.954 21.849,0.841 21.849,0.734C21.849,0.558 21.792,0.432 21.677,0.354C21.563,0.277 21.361,0.238 21.073,0.238L18.721,0.238L17.697,3.39L19.889,3.39Z" style="fill-opacity:0;fill-rule:nonzero;stroke:white;stroke-width:0.27px;"/>
        </g>
        <g transform="matrix(1.926062,0,0,1.926062,-27.301218,16.644189)">
            <path d="M26.945,4.51L25.265,2.214L24.929,2.214L24.185,4.51L22.721,4.51L24.473,-0.89L25.937,-0.89L25.249,1.222L25.585,1.222L28.273,-0.89L30.233,-0.89L26.689,1.782L28.665,4.51L26.945,4.51Z" style="fill-opacity:0;fill-rule:nonzero;stroke:white;stroke-width:0.27px;"/>
        </g>
    </g>
</svg>
